<?xml version="1.0" encoding="UTF-8" standalone="no"?>
<!-- Created with Inkscape (http://www.inkscape.org/) -->

<svg
   xmlns:dc="http://purl.org/dc/elements/1.1/"
   xmlns:cc="http://creativecommons.org/ns#"
   xmlns:rdf="http://www.w3.org/1999/02/22-rdf-syntax-ns#"
   xmlns:svg="http://www.w3.org/2000/svg"
   xmlns="http://www.w3.org/2000/svg"
   xmlns:sodipodi="http://sodipodi.sourceforge.net/DTD/sodipodi-0.dtd"
   xmlns:inkscape="http://www.inkscape.org/namespaces/inkscape"
   width="210mm"
   height="297mm"
   viewBox="0 0 210 297"
   version="1.1"
   id="svg8"
   inkscape:version="0.92.4 (5da689c313, 2019-01-14)"
   sodipodi:docname="dynamites.svg">
  <defs
     id="defs2" />
  <sodipodi:namedview
     id="base"
     pagecolor="#ffffff"
     bordercolor="#666666"
     borderopacity="1.0"
     inkscape:pageopacity="0.0"
     inkscape:pageshadow="2"
     inkscape:zoom="0.7"
     inkscape:cx="924.86125"
     inkscape:cy="873.86405"
     inkscape:document-units="mm"
     inkscape:current-layer="layer1"
     showgrid="false"
     inkscape:window-width="1920"
     inkscape:window-height="1017"
     inkscape:window-x="-8"
     inkscape:window-y="-8"
     inkscape:window-maximized="1" />
  <metadata
     id="metadata5">
    <rdf:RDF>
      <cc:Work
         rdf:about="">
        <dc:format>image/svg+xml</dc:format>
        <dc:type
           rdf:resource="http://purl.org/dc/dcmitype/StillImage" />
        <dc:title></dc:title>
      </cc:Work>
    </rdf:RDF>
  </metadata>
  <g
     inkscape:label="Layer 1"
     inkscape:groupmode="layer"
     id="layer1">
    <path
       inkscape:connector-curvature="0"
       id="path851"
       d="m 170.24622,38.190201 -2.80952,10.363999 -8.30369,-5.306865 1.24868,9.926958 -6.93015,0.1873 6.43067,6.49312 -4.37036,4.86983 7.80422,-0.0624 -0.12487,11.6751 8.42856,-6.80527 4.62009,8.55342 0.12487,-10.30157 9.67724,3.30899 -6.11852,-9.61479 7.67936,-5.05714 -9.4275,-1.43597 2.87196,-8.116391 -7.99152,2.871955 z"
       style="fill:#ffd600;fill-opacity:0.9372549;stroke:none;stroke-width:0.17481446px;stroke-linecap:butt;stroke-linejoin:miter;stroke-opacity:1" />
    <path
       style="fill:#ffffff;fill-opacity:0.9372549;stroke:none;stroke-width:0.07221625px;stroke-linecap:butt;stroke-linejoin:miter;stroke-opacity:1"
       d="m 164.84062,52.454933 2.07536,4.26099 -3.47822,1.16125 2.96467,2.72939 -1.66818,2.43768 3.33109,-0.14117 0.21889,3.04884 1.91832,-2.69789 3.09167,3.75683 0.26966,-5.05711 3.43323,1.13555 -2.72431,-3.31989 3.28444,-2.26814 -4.08864,-0.95899 0.55146,-4.24391 -2.72155,2.77826 -1.45874,-3.56742 -1.2133,3.6559 z"
       id="path853"
       inkscape:connector-curvature="0" />
    <g
       id="g869"
       transform="matrix(0.6607161,0,0,0.6607161,296.64671,-37.117056)">
      <path
         style="fill:none;stroke:#000000;stroke-width:4;stroke-linecap:butt;stroke-linejoin:miter;stroke-miterlimit:4;stroke-dasharray:none;stroke-opacity:1"
         d="m -259.80487,92.371154 c 2.77993,-6.938936 13.5093,-15.540695 23.00384,-16.190349 22.81086,-1.560809 33.10937,18.244263 27.49015,36.745365 -5.2336,17.23144 1.23024,29.56673 18.32575,32.18365"
         id="path875"
         inkscape:connector-curvature="0"
         sodipodi:nodetypes="cssc" />
      <path
         sodipodi:nodetypes="cssc"
         inkscape:connector-curvature="0"
         id="path865"
         d="m -243.21526,94.676967 c 2.77993,-6.938936 10.66105,-15.063139 20.15559,-15.712793 22.81086,-1.560809 31.83773,16.354083 21.63151,32.776616 -9.76931,15.71953 -6.65248,30.75211 10.44303,33.36903"
         style="fill:none;stroke:#000000;stroke-width:4;stroke-linecap:butt;stroke-linejoin:miter;stroke-miterlimit:4;stroke-dasharray:none;stroke-opacity:1" />
    </g>
    <path
       style="fill:#ffd600;fill-opacity:0.9372549;stroke:none;stroke-width:0.17279515px;stroke-linecap:butt;stroke-linejoin:miter;stroke-opacity:1"
       d="m 48.93737,36.35321 -2.77707,10.24428 -8.207766,-5.24556 1.234251,9.81229 -6.850094,0.18514 6.356388,6.41811 -4.319876,4.81358 7.714072,-0.0617 -0.123427,11.54024 8.331199,-6.72666 4.566722,8.45462 0.123427,-10.18257 9.565451,3.27076 -6.047836,-9.50373 7.590649,-4.99872 -9.318599,-1.41939 2.838784,-8.02263 -7.899212,2.83878 z"
       id="path842"
       inkscape:connector-curvature="0" />
    <path
       inkscape:connector-curvature="0"
       id="path844"
       d="m 43.594214,50.45316 2.051384,4.21178 -3.438045,1.14784 2.930427,2.69786 -1.648913,2.40952 3.292616,-0.13954 0.216359,3.01362 1.896156,-2.66672 3.055963,3.71343 0.266546,-4.99869 3.393576,1.12243 -2.692841,-3.28154 3.246496,-2.24194 -4.041404,-0.94791 0.54509,-4.1949 -2.690117,2.74618 -1.441887,-3.52622 -1.199296,3.61367 z"
       style="fill:#ffffff;fill-opacity:0.9372549;stroke:none;stroke-width:0.07138207px;stroke-linecap:butt;stroke-linejoin:miter;stroke-opacity:1" />
    <g
       id="g849"
       transform="matrix(0.65308403,0,0,0.65308403,188.31852,-38.084154)">
      <rect
         transform="rotate(20.157424)"
         ry="4.1577382"
         y="167.39969"
         x="-207.41013"
         height="79.670059"
         width="26.142248"
         id="rect21"
         style="fill:#e64a19;fill-opacity:1;stroke-width:0.26458332" />
      <path
         sodipodi:nodetypes="cccc"
         inkscape:connector-curvature="0"
         id="path27"
         d="m -243.21526,94.676967 c 2.77993,-6.938936 7.46747,-13.691968 16.94279,-14.578864 22.82587,-1.323279 25.64289,24.718397 8.02437,35.422447 -15.26915,10.45927 -11.94415,26.97235 5.15136,29.58927"
         style="fill:none;stroke:#000000;stroke-width:4.86499977;stroke-linecap:butt;stroke-linejoin:miter;stroke-miterlimit:4;stroke-dasharray:none;stroke-opacity:1" />
      <path
         sodipodi:nodetypes="csssscc"
         inkscape:connector-curvature="0"
         id="rect839"
         d="m -200.26394,167.39702 14.83832,0.003 c 2.30339,3.9e-4 4.15774,1.85435 4.15774,4.15774 v 71.35458 c 0,2.30339 -1.85435,4.15774 -4.15774,4.15774 l -14.83832,-0.003 z"
         style="fill:#f4511e;fill-opacity:1;stroke-width:0.26458332"
         transform="rotate(20.157424)" />
    </g>
    <path
       sodipodi:nodetypes="cccc"
       inkscape:connector-curvature="0"
       id="path857"
       d="m 150.52623,27.266115 c 1.84188,-4.337789 4.94767,-8.559361 11.22566,-9.113793 15.12358,-0.827231 16.99003,15.452393 5.31665,22.143892 -10.11677,6.538479 -7.91374,16.861419 3.41311,18.497359"
       style="fill:none;stroke:#000000;stroke-width:2.57431245;stroke-linecap:butt;stroke-linejoin:miter;stroke-miterlimit:4;stroke-dasharray:none;stroke-opacity:1" />
    <rect
       transform="rotate(20.157424)"
       ry="2.7470846"
       y="-22.31028"
       x="117.33004"
       height="52.63929"
       width="17.272604"
       id="rect926"
       style="fill:#e64a19;fill-opacity:1;stroke-width:0.17481446" />
    <path
       sodipodi:nodetypes="csssscc"
       inkscape:connector-curvature="0"
       id="path928"
       d="m 122.26466,21.11367 9.20274,3.380297 c 1.42858,0.524685 2.15662,2.096803 1.63218,3.525473 l -16.24625,44.257453 c -0.52444,1.42867 -2.0968,2.15662 -3.52547,1.63218 l -9.20274,-3.3803 z"
       style="fill:#f4511e;fill-opacity:1;stroke-width:0.17481446" />
    <rect
       style="fill:#e64a19;fill-opacity:1;stroke-width:0.17481446"
       id="rect922"
       width="17.272604"
       height="52.63929"
       x="127.93952"
       y="-26.204859"
       ry="2.7470846"
       transform="rotate(20.157424)" />
    <path
       style="fill:#f4511e;fill-opacity:1;stroke-width:0.17481446"
       d="m 133.56637,21.11367 9.20274,3.380297 c 1.42858,0.524685 2.15662,2.096803 1.63218,3.525473 l -16.24624,44.257453 c -0.52445,1.42867 -2.0968,2.15662 -3.52548,1.63218 l -9.20274,-3.3803 z"
       id="path924"
       inkscape:connector-curvature="0"
       sodipodi:nodetypes="csssscc" />
    <rect
       transform="rotate(20.157424)"
       ry="2.7470846"
       y="-31.499052"
       x="142.36179"
       height="52.63929"
       width="17.272604"
       id="rect855"
       style="fill:#e64a19;fill-opacity:1;stroke-width:0.17481446" />
    <path
       sodipodi:nodetypes="csssscc"
       inkscape:connector-curvature="0"
       id="path859"
       d="m 148.92964,21.11367 9.20274,3.380297 c 1.42858,0.524685 2.15662,2.096803 1.63218,3.525473 l -16.24624,44.257453 c -0.52445,1.42867 -2.09681,2.15662 -3.52548,1.63218 l -9.20274,-3.3803 z"
       style="fill:#f4511e;fill-opacity:1;stroke-width:0.17481446" />
  </g>
</svg>
