<?xml version="1.0" encoding="UTF-8"?>
<!-- Created with Inkscape (http://www.inkscape.org/) -->
<svg width="1e3" height="500" version="1.1" viewBox="0 0 271 132" xmlns="http://www.w3.org/2000/svg" xmlns:cc="http://creativecommons.org/ns#" xmlns:dc="http://purl.org/dc/elements/1.1/" xmlns:rdf="http://www.w3.org/1999/02/22-rdf-syntax-ns#">
 <defs>
  <linearGradient id="linearGradient5142" x1="-26" x2="-26" y1="261" y2="226" gradientTransform="matrix(1.5 0 0 3.1 84 -540)" gradientUnits="userSpaceOnUse">
   <stop stop-color="#865ad4" offset="0"/>
   <stop stop-color="#865ad4" stop-opacity="0" offset="1"/>
  </linearGradient>
 </defs>
 <metadata>
  <rdf:RDF>
   <cc:Work rdf:about="">
    <dc:format>image/svg+xml</dc:format>
    <dc:type rdf:resource="http://purl.org/dc/dcmitype/StillImage"/>
    <dc:title/>
   </cc:Work>
  </rdf:RDF>
 </metadata>
 <g transform="translate(0 -165)">
  <rect x="7.1e-15" y="165" width="271" height="132" fill="#191926"/>
  <g stroke-width=".26">
   <path d="m80 175h32c5.2 0 9.3 4.1 9.3 9.5v31c0 5.4-4.1 9.5-9.3 9.5h-32c-5.2 0-9.3-4.1-9.3-9.5v-31c0-5.4 4.1-9.5 9.3-9.5z" fill="#4397ef"/>
   <path d="m11 165h50v101h-50z" fill="url(#linearGradient5142)"/>
   <path d="m20 189h31c5.2 0 9.5 4.1 9.5 9.5v31c0 5.2-4.1 9.5-9.5 9.5h-31c-5.2 0-9.5-4.1-9.5-9.5v-31c0-5.2 4.1-9.5 9.5-9.5z" fill="#62449a"/>
   <path d="m80 236h32c5.2 0 9.3 4.1 9.3 9.5v31c0 5.4-4.1 9.5-9.3 9.5h-32c-5.2 0-9.3-4.1-9.3-9.5v-31c0-5.4 4.1-9.5 9.3-9.5z" fill="#f24580"/>
   <path d="m20 236h31c5.2 0 9.5 4.1 9.5 9.5v31c0 5.2-4.1 9.5-9.5 9.5h-31c-5.2 0-9.5-4.1-9.5-9.5v-31c0-5.2 4.1-9.5 9.5-9.5z" fill="#31384c"/>
   <path d="m20 213h32c5.2 0 9.3 4.1 9.3 9.5v31c0 5.4-4.1 9.5-9.3 9.5h-32c-5.2 0-9.3-4.1-9.3-9.5v-31c0-5.4 4.1-9.5 9.3-9.5z" fill="#865ad4"/>
  </g>
  <g transform="matrix(.26 0 0 .26 0 165)" fill="#fff">
   <path d="m381 414v-13h-32c-4 0-7-0.92-9-2.8-2-1.8-3-4.4-3-7.8 0.31-4.2 3.8-7.9 6-11l34-46c2.7-3.7 6-8.6 11-8.6 6.4 0 9.6 3.8 9.6 11v50h6.3c4.2-9e-3 7.2 3.4 7.2 7.3-0.15 5-4.4 7.1-7.2 7.1h-6.3v13c0.037 5-3.7 8.3-8 8.4-5.2-0.19-7.9-4.7-8-8.5zm-26-28h26v-36z" stroke-width="3.2"/>
   <path d="m335 168v-50c-10 7.6-17 11-20 11-1.6 0-3-0.64-4.3-1.9-1.2-1.3-1.9-2.8-1.9-4.6 0-2 0.62-3.5 1.9-4.4 1.2-0.92 3.4-2.1 6.6-3.6 7.9-3.5 14-9.3 19-16 2.3-3.2 3.7-5 4.2-5.5 0.68-0.72 1.9-1.1 3.7-1.1 2 0 3.7 0.8 4.9 2.4s1.9 3.8 1.9 6.6v65c0 8-3.4 12-8.6 12-4.7-0.24-7.8-5.6-7.7-11z" stroke-width="3"/>
   <path d="m403 127c2.9-1.6 6.3-2.4 10-2.3 16 0.047 26 13 26 28-0.77 18-13 29-30 30-25-1.3-31-22-31-42 0.45-24 7.1-45 33-46 8.5 0.32 17 3.3 22 10 1.9 2.9 2.9 5.7 2.9 8.4 0 1.6-0.6 3.1-1.8 4.4s-2.7 1.9-4.6 1.9c-1.6 0-3.1-0.5-4.5-1.5-4.8-5.1-5.5-12-14-12-4.7 0.25-8.6 3.2-11 6.6-2.8 4-4.5 11-5 22 2.1-3.1 5.4-6.1 8-7.6zm21 26c0.041-8.8-5.2-17-14-17-9 0.27-14 7.8-14 16 0.44 9.2 5 18 14 18 10-1.1 14-8.8 14-18z" stroke-width="3"/>
   <path d="m101 278c6.9-0.13 12-5.3 12-11-0.26-6.2-5.4-10-11-10-5.7-0.2-9.2 2.7-11 7.3-1.5 4-3.1 7-7.5 7-3.7-0.22-5.9-3.4-5.9-6.5 0.61-8.4 8.3-14 15-17 3.4-1.2 7-1.7 11-1.7 12-0.032 23 7.3 23 19 0.014 7.5-4.3 13-9.6 17 7.8 4.1 13 11 13 20-0.68 16-14 26-29 26-11-0.1-21-5.7-26-15-1.2-2.5-1.7-4.5-1.7-6 0-2.1 0.7-3.8 2.1-5.1s3.2-2 5.2-2c2.1 0.18 4.2 1.2 4.9 3.1 3 7 8.4 13 16 13 7.7-0.19 14-4.7 14-12-0.48-8.5-5.4-14-13-14-0.72 0-3.1 0.072-4.7 0.22-4.6 0.34-8.2-0.72-8.2-5.4 0.22-3.9 3.9-5.9 6.6-5.9z" stroke-width="2.8"/>
   <path d="m193 312c2.9 0 5.1 0.58 6.6 1.7s2.3 2.8 2.3 4.8c0 1.8-0.62 3.3-1.9 4.6-1.2 1.2-3 1.9-5.4 1.9h-41c-2.8 0-5-0.76-6.6-2.3-1.5-1.5-2.3-3.3-2.3-5.3-0.36-4.2 2.1-7.6 4.8-10l29-26c3.4-3.8 6.2-8.4 6.2-13-0.21-7.3-6.5-12-13-12-4.8 0-8.6 2-11 6-1.9 3.3-2.3 7.1-4.9 10-1.1 1.3-2.7 2-4.8 2-1.8 0-3.4-0.6-4.6-1.8-3.1-3.7-1.7-9.1-0.12-13 4.6-10 16-15 25-15 5.6 0 10 0.88 14 2.6 8.3 3.8 13 12 13 20 0 4.4-1.2 8.6-3.5 13-2.3 3.7-4.7 6.5-7.2 8.4l-21 20c-0.88 1-1.8 2.2-2.7 3.6z" stroke-width="2.8"/>
  </g>
  <flowRoot transform="matrix(.32 0 0 .32 -44 176)" fill="#ffffff" font-family="'Arial Rounded MT Bold'" font-size="85px" letter-spacing="0px" text-align="center" text-anchor="middle" word-spacing="0px" style="line-height:1" xml:space="preserve"><flowRegion fill="#ffffff" font-family="'Arial Rounded MT Bold'" style="line-height:1"><rect x="539" y="48" width="412" height="370" fill="#fff"/></flowRegion><flowPara>Drop and merge Number</flowPara></flowRoot>
 </g>
</svg>
